<?xml version="1.0" encoding="UTF-8"?>
<svg width="16px" height="16px" viewBox="0 0 16 16" version="1.1" xmlns="http://www.w3.org/2000/svg">
    <title>Globe Icon</title>
    <g stroke="none" stroke-width="1" fill="none" fill-rule="evenodd">
        <path d="M8,0 C3.6,0 0,3.6 0,8 C0,12.4 3.6,16 8,16 C12.4,16 16,12.4 16,8 C16,3.6 12.4,0 8,0 Z M13.9,7 L12,7 C11.9,5.5 11.6,4.1 11.2,3 C12.6,4 13.6,5.4 13.9,7 Z M8,14 C7.4,14 6.2,12.1 6,8 L10,8 C9.8,12.1 8.6,14 8,14 Z M6,7 C6.2,2.9 7.3,1 8,1 C8.7,1 9.8,2.9 10,7 L6,7 Z M4.9,3 C4.4,4.1 4.1,5.5 4,7 L2.1,7 C2.4,5.4 3.4,4 4.9,3 Z M2.1,8 L4,8 C4.1,9.5 4.4,10.9 4.8,12 C3.4,11 2.4,9.6 2.1,8 Z M11.1,12 C11.6,10.9 11.8,9.5 11.9,8 L13.8,8 C13.6,9.6 12.6,11 11.1,12 Z" fill="#FFFFFF"/>
    </g>
</svg>
