<?xml version="1.0" encoding="UTF-8"?>
<svg width="180px" height="38px" viewBox="0 0 180 38" version="1.1" xmlns="http://www.w3.org/2000/svg">
    <title>Next.js Logo</title>
    <g stroke="none" stroke-width="1" fill="none" fill-rule="evenodd">
        <g transform="translate(0.000000, 5.000000)" fill="#000000" fill-rule="nonzero">
            <path d="M106,21.9 L106,0.3 L109.3,0.3 L109.3,21.9 L106,21.9 Z M0.3,21.9 L0.3,0.3 L3.6,0.3 L15.1,15.8 L15.1,0.3 L18.4,0.3 L18.4,21.9 L15.1,21.9 L3.6,6.4 L3.6,21.9 L0.3,21.9 Z M25.2,21.9 L25.2,0.3 L37,0.3 L37,3.3 L28.5,3.3 L28.5,9.5 L36.2,9.5 L36.2,12.5 L28.5,12.5 L28.5,18.9 L37,18.9 L37,21.9 L25.2,21.9 Z M42.2,21.9 L42.2,0.3 L45.5,0.3 L45.5,18.9 L53.9,18.9 L53.9,21.9 L42.2,21.9 Z M60.3,21.9 L60.3,0.3 L63.6,0.3 L63.6,21.9 L60.3,21.9 Z M68.8,21.9 L68.8,0.3 L72.1,0.3 L83.6,15.8 L83.6,0.3 L86.9,0.3 L86.9,21.9 L83.6,21.9 L72.1,6.4 L72.1,21.9 L68.8,21.9 Z M93.7,21.9 L93.7,0.3 L105.5,0.3 L105.5,3.3 L97,3.3 L97,9.5 L104.7,9.5 L104.7,12.5 L97,12.5 L97,18.9 L105.5,18.9 L105.5,21.9 L93.7,21.9 Z"/>
        </g>
    </g>
</svg>
