<?xml version="1.0" encoding="UTF-8"?>
<svg width="16px" height="16px" viewBox="0 0 16 16" version="1.1" xmlns="http://www.w3.org/2000/svg">
    <title>Window Icon</title>
    <g stroke="none" stroke-width="1" fill="none" fill-rule="evenodd">
        <path d="M14,2 L2,2 C1.4,2 1,2.4 1,3 L1,13 C1,13.6 1.4,14 2,14 L14,14 C14.6,14 15,13.6 15,13 L15,3 C15,2.4 14.6,2 14,2 Z M14,13 L2,13 L2,6 L14,6 L14,13 Z M14,5 L2,5 L2,3 L14,3 L14,5 Z M4,4 C4.3,4 4.5,3.8 4.5,3.5 C4.5,3.2 4.3,3 4,3 C3.7,3 3.5,3.2 3.5,3.5 C3.5,3.8 3.7,4 4,4 Z M6,4 C6.3,4 6.5,3.8 6.5,3.5 C6.5,3.2 6.3,3 6,3 C5.7,3 5.5,3.2 5.5,3.5 C5.5,3.8 5.7,4 6,4 Z M8,4 C8.3,4 8.5,3.8 8.5,3.5 C8.5,3.2 8.3,3 8,3 C7.7,3 7.5,3.2 7.5,3.5 C7.5,3.8 7.7,4 8,4 Z" fill="#FFFFFF"/>
    </g>
</svg>
